<svg xmlns="http://www.w3.org/2000/svg" viewBox="0 0 1280 400" width="1280" height="400">
  <defs>
    <linearGradient id="bgGrad" x1="0%" y1="0%" x2="100%" y2="100%">
      <stop offset="0%" stop-color="#FDFCF8" />
      <stop offset="100%" stop-color="#F2F4EB" />
    </linearGradient>
    
    <linearGradient id="accentGrad" x1="0%" y1="0%" x2="100%" y2="0%">
      <stop offset="0%" stop-color="#2C6E5C" />
      <stop offset="100%" stop-color="#9BC2B0" />
    </linearGradient>

    <pattern id="grid" width="40" height="40" patternUnits="userSpaceOnUse">
      <path d="M 40 0 L 0 0 0 40" fill="none" stroke="#1A3E4C" stroke-width="0.5" opacity="0.03" />
    </pattern>
    <pattern id="codeBits" width="80" height="80" patternUnits="userSpaceOnUse">
      <text x="5" y="20" font-family="'JetBrains Mono', monospace" font-size="10" fill="#2C6E5C" opacity="0.06">&lt;/&gt;</text>
      <text x="50" y="60" font-family="'JetBrains Mono', monospace" font-size="8" fill="#9BC2B0" opacity="0.08">{ }</text>
    </pattern>

    <filter id="softShadow" x="-10%" y="-10%" width="120%" height="120%">
      <feDropShadow dx="0" dy="4" stdDeviation="8" flood-color="#1A3E4C" flood-opacity="0.06" />
    </filter>
  </defs>

  <rect width="1280" height="400" fill="url(#bgGrad)" />
  <rect width="1280" height="400" fill="url(#grid)" />
  <rect width="1280" height="400" fill="url(#codeBits)" />

  <rect x="20" y="20" width="1240" height="360" fill="none" stroke="#E2EAF1" stroke-width="2" rx="16" />
  <rect x="35" y="35" width="1210" height="330" fill="none" stroke="#E2EAF1" stroke-width="1" rx="10" />

  <rect x="20" y="80" width="6" height="240" fill="url(#accentGrad)" rx="3" />

  <g transform="translate(1050, 80)" opacity="0.04">
    <path d="M0,0 L80,0 L80,50 L40,85 L0,50 Z" fill="none" stroke="#1A3E4C" stroke-width="3" />
    <path d="M15,15 L65,15 L65,40 L40,60 L15,40 Z" fill="none" stroke="#1A3E4C" stroke-width="1.5" />
    <circle cx="40" cy="28" r="6" fill="none" stroke="#1A3E4C" stroke-width="1.5" />
  </g>

  <text x="70" y="130" font-family="'JetBrains Mono', monospace" font-weight="700" font-size="52" fill="#1A3E4C" letter-spacing="-0.5">Algorithmic Problems</text>

  <rect x="70" y="155" width="90" height="3" fill="url(#accentGrad)" rx="1.5" />

  <text x="70" y="200" font-family="'JetBrains Mono', monospace" font-weight="500" font-size="20" fill="#5A7388" letter-spacing="1.2">EFFICIENT PROBLEM SOLVING</text>

  <g transform="translate(70, 250)">
    
    <g transform="translate(0, 0)">
      <rect x="-10" y="-20" width="130" height="40" rx="20" fill="#F4F6F2" stroke="#9BC2B0" stroke-width="1.5" filter="url(#softShadow)" />
      <g transform="translate(20, -14) scale(0.22)" fill="#1A3E4C">
        <path d="M47.617 98.12s-4.767 2.774 3.397 3.71c9.892 1.13 14.947.968 25.845-1.092 0 0 2.871 1.795 6.873 3.351-24.439 10.47-55.308-.607-36.115-5.969zm-2.988-13.665s-5.348 3.959 2.823 4.805c10.567 1.091 18.91 1.18 33.354-1.6 0 0 1.993 2.025 5.132 3.131-29.542 8.64-62.446.68-41.309-6.336z"/>
        <path d="M69.802 61.271c6.025 6.935-1.58 13.17-1.58 13.17s15.289-7.891 8.269-17.777c-6.559-9.215-11.587-13.792 15.635-29.58 0 .001-42.731 10.67-22.324 34.187z"/>
        <path d="M102.123 108.229s3.529 2.91-3.888 5.159c-14.102 4.272-58.706 5.56-71.094.171-4.451-1.938 3.899-4.625 6.526-5.192 2.739-.593 4.303-.485 4.303-.485-4.953-3.487-32.013 6.85-13.743 9.815 49.821 8.076 90.817-3.637 77.896-9.468zM49.912 70.294s-22.686 5.389-8.033 7.348c6.188.828 18.518.638 30.011-.326 9.39-.789 18.813-2.474 18.813-2.474s-3.308 1.419-5.704 3.053c-23.042 6.061-67.544 3.238-54.731-2.958 10.832-5.239 19.644-4.643 19.644-4.643zm40.697 22.747c23.421-12.167 12.591-23.86 5.032-22.285-1.848.385-2.677.72-2.677.72s.688-1.079 2-1.543c14.953-5.255 26.451 15.503-4.823 23.725 0-.002.359-.327.468-.617z"/>
        <path d="M76.491 1.587S89.459 14.563 64.188 34.51c-20.266 16.006-4.621 25.13-.007 35.559-11.831-10.673-20.509-20.07-14.688-28.815C58.041 28.42 81.722 22.195 76.491 1.587z"/>
        <path d="M52.214 126.021c22.476 1.437 57-.8 57.817-11.436 0 0-1.571 4.032-18.577 7.231-19.186 3.612-42.854 3.191-56.887.874 0 .001 2.875 2.381 17.647 3.331z"/>
      </g>
      <text x="70" y="5" font-family="'JetBrains Mono', monospace" font-weight="600" font-size="16" fill="#1A3E4C" text-anchor="middle">Java</text>
    </g>

    <g transform="translate(145, 0)">
      <rect x="-10" y="-20" width="130" height="40" rx="20" fill="#F4F6F2" stroke="#2C6E5C" stroke-width="1.5" filter="url(#softShadow)" />
      <g transform="translate(27, -11) scale(0.9)" fill="none" stroke="#1A3E4C" stroke-width="1.8" stroke-linejoin="round">
        <path d="M10,1 L18.66,6 L18.66,16 L10,21 L1.34,16 L1.34,6 Z" />
        <path d="M8,14 C6,14 4.5,12.5 4.5,10.5 C4.5,8.5 6,7 8,7" stroke-width="1.5" stroke-linecap="round"/>
        <path d="M11,10.5 h3 m-1.5,-1.5 v3 M15,10.5 h3 m-1.5,-1.5 v3" stroke-width="1"/>
      </g>
      <text x="67" y="5" font-family="'JetBrains Mono', monospace" font-weight="600" font-size="16" fill="#1A3E4C" text-anchor="middle">C++</text>
    </g>

    <g transform="translate(290, 0)">
      <rect x="-10" y="-20" width="130" height="40" rx="20" fill="#F4F6F2" stroke="#9BC2B0" stroke-width="1.5" filter="url(#softShadow)" />
      <g transform="translate(11, -11) scale(0.2)" fill="#1A3E4C">
        <path d="M63.391 1.988c-4.222.02-8.252.379-11.8 1.007-10.45 1.846-12.346 5.71-12.346 12.837v9.411h24.693v3.137H29.977c-7.176 0-13.46 4.313-15.426 12.521-2.268 9.405-2.368 15.275 0 25.096 1.755 7.311 5.947 12.519 13.124 12.519h8.491V67.234c0-8.151 7.051-15.34 15.426-15.34h24.665c6.866 0 12.346-5.654 12.346-12.548V15.833c0-6.693-5.646-11.72-12.346-12.837-4.244-.706-8.645-1.027-12.866-1.008zM50.037 9.557c2.55 0 4.634 2.117 4.634 4.721 0 2.593-2.083 4.69-4.634 4.69-2.56 0-4.633-2.097-4.633-4.69-.001-2.604 2.073-4.721 4.633-4.721z" transform="translate(0 10.26)"/>
        <path d="M91.682 28.38v10.966c0 8.5-7.208 15.655-15.426 15.655H51.591c-6.756 0-12.346 5.783-12.346 12.549v23.515c0 6.691 5.818 10.628 12.346 12.547 7.816 2.297 15.312 2.713 24.665 0 6.216-1.801 12.346-5.423 12.346-12.547v-9.412H63.938v-3.138h37.012c7.176 0 9.852-5.005 12.348-12.519 2.578-7.735 2.467-15.174 0-25.096-1.774-7.145-5.161-12.521-12.348-12.521h-9.268zM77.809 87.927c2.561 0 4.634 2.097 4.634 4.692 0 2.602-2.074 4.719-4.634 4.719-2.55 0-4.633-2.117-4.633-4.719 0-2.595 2.083-4.692 4.633-4.692z" transform="translate(0 10.26)"/>
      </g>
      <text x="68" y="5" font-family="'JetBrains Mono', monospace" font-weight="600" font-size="16" fill="#1A3E4C" text-anchor="middle">Python</text>
    </g>

  </g>

  <g transform="translate(1170, 280)">
    <rect x="0" y="0" width="60" height="60" rx="18" fill="#F4F6F2" stroke="url(#accentGrad)" stroke-width="2.5" filter="url(#softShadow)" />
    <text x="30" y="38" font-family="'JetBrains Mono', monospace" font-weight="700" font-size="20" fill="#2C6E5C" text-anchor="middle">DSA</text>
  </g>

</svg>
